<?xml version="1.0" encoding="UTF-8"?>
<!DOCTYPE svg PUBLIC "-//W3C//DTD SVG 1.1//EN" "http://www.w3.org/Graphics/SVG/1.1/DTD/svg11.dtd">
<!-- Creator: CorelDRAW -->
<svg xmlns="http://www.w3.org/2000/svg" xml:space="preserve" width="5.9913mm" height="5.9913mm" version="1.1" style="shape-rendering:geometricPrecision; text-rendering:geometricPrecision; image-rendering:optimizeQuality; fill-rule:evenodd; clip-rule:evenodd"
viewBox="0 0 9.81 9.81"
 xmlns:xlink="http://www.w3.org/1999/xlink"
 xmlns:xodm="http://www.corel.com/coreldraw/odm/2003">
 <defs>
  <style type="text/css">
   <![CDATA[
    .fil1 {fill:white}
    .fil0 {fill:url(#id0)}
   ]]>
  </style>
  <linearGradient id="id0" gradientUnits="userSpaceOnUse" x1="36.53" y1="-77.94" x2="36.53" y2="-77.93">
   <stop offset="0" style="stop-opacity:1; stop-color:#19E6FF"/>
   <stop offset="1" style="stop-opacity:1; stop-color:#1E51EE"/>
  </linearGradient>
 </defs>
 <g id="Camada_x0020_1">
  <metadata id="CorelCorpID_0Corel-Layer"/>
  <path id="path-2_1_" class="fil0" d="M6.39 0c0.98,0 1.47,0 2.01,0.16 0.58,0.21 1.04,0.66 1.24,1.24 0.17,0.53 0.17,1.04 0.17,2.02l0 2.96c0,0.98 0,1.47 -0.16,2.01 -0.21,0.58 -0.66,1.04 -1.24,1.24 -0.54,0.17 -1.04,0.17 -2.02,0.17l-2.96 0c-0.98,0 -1.47,0 -2.01,-0.16 -0.59,-0.22 -1.04,-0.66 -1.25,-1.25 -0.16,-0.52 -0.16,-1.01 -0.16,-2.01l0 -2.96c0,-0.98 0,-1.47 0.16,-2.01 0.22,-0.58 0.66,-1.04 1.25,-1.24 0.52,-0.17 1.01,-0.17 2.01,-0.17l2.96 0z"/>
  <path id="Icon" class="fil1" d="M2.21 6.9c0.01,-0.02 0.03,-0.03 0.05,-0.04 0.09,-0.02 0.17,-0.04 0.26,-0.04 0.24,0 0.46,0.09 0.63,0.24 0.02,0.02 0.02,0.05 0.01,0.08l-0.45 0.76c-0.09,0.15 -0.25,0.24 -0.41,0.24 -0.1,0 -0.2,-0.03 -0.28,-0.1 -0.2,-0.14 -0.24,-0.43 -0.12,-0.63l0.31 -0.5zm5.81 -1.17c0.25,0 0.47,0.19 0.49,0.43 0.02,0.28 -0.2,0.52 -0.47,0.52l-0.58 0 0.43 0.73c0.12,0.21 0.08,0.49 -0.12,0.63 -0.09,0.07 -0.19,0.1 -0.28,0.1 -0.16,0 -0.33,-0.09 -0.41,-0.24l-1.02 -1.78 -0.81 -1.4c-0.01,-0.01 -0.01,-0.02 -0.01,-0.04 0,-0.05 -0.01,-0.11 -0.01,-0.16 0,-0.38 0.09,-0.76 0.26,-1.07 0.02,-0.03 0.08,-0.03 0.1,0l1.33 2.27 1.11 0 0 0.01zm-2.51 0.02c0.24,0.14 0.39,0.41 0.39,0.72 0,0.07 -0.01,0.12 -0.02,0.19 0,0.01 -0.02,0.02 -0.03,0.02l-1.53 0 -2.54 0c-0.27,0 -0.5,-0.24 -0.47,-0.52 0.02,-0.25 0.24,-0.43 0.49,-0.43l1.08 0 1.47 -2.53 -0.4 -0.69c-0.14,-0.24 -0.04,-0.56 0.22,-0.66 0.23,-0.1 0.49,0 0.62,0.21l0.12 0.21 0.13 -0.22c0.14,-0.24 0.46,-0.32 0.69,-0.15 0.21,0.14 0.25,0.43 0.12,0.64l-1.87 3.19 0.76 0 0.7 0c0.03,0 0.05,0.01 0.08,0.02z"/>
 </g>
</svg>
