<?xml version="1.0" encoding="UTF-8"?>
<!DOCTYPE svg PUBLIC "-//W3C//DTD SVG 1.1//EN" "http://www.w3.org/Graphics/SVG/1.1/DTD/svg11.dtd">
<!-- Creator: CorelDRAW -->
<svg xmlns="http://www.w3.org/2000/svg" xml:space="preserve" width="32.3447mm" height="57.1758mm" version="1.1" style="shape-rendering:geometricPrecision; text-rendering:geometricPrecision; image-rendering:optimizeQuality; fill-rule:evenodd; clip-rule:evenodd"
viewBox="0 0 510.03 901.58"
 xmlns:xlink="http://www.w3.org/1999/xlink"
 xmlns:xodm="http://www.corel.com/coreldraw/odm/2003">
 <defs>
  <style type="text/css">
   <![CDATA[
    .str0 {stroke:#8843F9;stroke-width:3.15;stroke-miterlimit:22.9256}
    .fil2 {fill:black}
    .fil0 {fill:#8843F9}
    .fil1 {fill:white}
   ]]>
  </style>
     <clipPath id="id0">
      <path d="M126.47 37.97l244.92 0 0 100.87 -244.92 0 0 -100.87z"/>
     </clipPath>
     <clipPath id="id1">
      <path d="M140.55 412.42l241.48 0 0 77.94 -241.48 0 0 -77.94z"/>
     </clipPath>
 </defs>
 <g id="Camada_x0020_1">
  <metadata id="CorelCorpID_0Corel-Layer"/>
  <g id="_105554049549344">
   <path class="fil0" d="M82.86 531.68c113.09,-167.13 292.19,-108.74 361.11,-13.7 62.96,86.83 81.85,258.41 -49.63,365.37 154.85,-171.45 68.35,-353.62 -36.18,-409.58 -97.6,-52.25 -232.96,-16.71 -266.5,124.53 33.28,2.95 27.45,30.35 -1.96,72.47 61.27,163.81 222.59,120.94 240.81,34.58 0.49,-2.3 0.88,-4.55 1.21,-6.77 -4.83,12.18 -12.37,23.19 -22.67,33.03 -18.64,18.92 -41.17,28.24 -67.61,28.24 -27.05,0 -49.89,-9.32 -68.82,-28.24 -18.63,-18.64 -27.95,-41.47 -27.95,-68.51 0,-112.92 175.92,-147.77 223.07,-30.31 21.17,52.73 8.81,120.82 -37.95,158.72 -72.98,59.15 -209.44,47.48 -268.51,-97.21 -19.82,8.76 -36.88,29.53 -51.73,59.84l-0.01 -0c-0.51,-1.04 -0.93,-2.33 -1.14,-3.95 -3.81,-31.15 37.45,-110.11 44.06,-120.53 0,-10.45 0,-20.91 0,-31.34 -25.88,12.75 -38.71,31.69 -52.4,50.24 -0.11,-1.89 -0.1,-3.48 0.01,-5 0.12,-1.69 0.34,-3.31 0.61,-4.64 0.27,-1.32 0.59,-2.35 1.05,-3.85 13.62,-43.04 36.82,-86.03 81.11,-103.37z"/>
   <path class="fil1" d="M100.35 549.91c113.09,-167.13 292.19,-108.74 361.11,-13.7 62.96,86.83 81.85,258.41 -49.63,365.37 154.85,-171.45 68.35,-353.62 -36.18,-409.58 -97.6,-52.25 -232.96,-16.71 -266.5,124.53 33.28,2.95 27.45,30.35 -1.96,72.47 61.27,163.81 222.59,120.94 240.81,34.58 0.49,-2.3 0.88,-4.55 1.21,-6.77 -4.83,12.18 -12.37,23.19 -22.67,33.03 -18.64,18.92 -41.17,28.24 -67.61,28.24 -27.05,0 -49.89,-9.32 -68.82,-28.24 -18.63,-18.64 -27.95,-41.47 -27.95,-68.51 0,-112.92 175.92,-147.77 223.07,-30.31 21.17,52.73 8.81,120.82 -37.95,158.72 -72.98,59.15 -209.44,47.48 -268.51,-97.21 -19.82,8.76 -36.88,29.53 -51.73,59.84l-0.01 -0c-0.51,-1.04 -0.93,-2.33 -1.14,-3.95 -3.81,-31.15 37.45,-110.11 44.06,-120.53 0,-10.45 0,-20.91 0,-31.34 -25.88,12.75 -38.71,31.69 -52.4,50.24 -0.11,-1.89 -0.1,-3.48 0.01,-5 0.12,-1.69 0.34,-3.31 0.61,-4.64 0.27,-1.32 0.59,-2.35 1.05,-3.85 13.62,-43.04 36.82,-86.03 81.11,-103.37z"/>
   <path class="fil1" d="M365.86 172.29c73.39,-15.86 41.1,93.36 4.66,150.62 32.07,-41.93 75.35,-73.74 55.94,-162.09 -24.89,-14.93 -45.28,-11.85 -60.6,11.47z"/>
   <path class="fil1" d="M141.72 187.09c-70.84,-89.86 -77.66,74.37 -10.4,138.06 -27.38,-53.28 -39.82,-164.22 10.4,-138.06z"/>
   <path class="fil1" d="M216.58 183.66c121.85,-8.29 147.01,-74.55 125.88,-111.84 -10.51,-18.55 -53.28,-55.86 -92.06,-14.89 -43.35,-45.82 -82.61,-10.19 -93.22,7.78 -12.18,20.62 -17.48,73.95 33.71,114.66 -65.19,-17.21 -85.64,-105.66 -29.11,-150.27 -2.03,-12.84 -6.53,-21.55 -11.99,-28.68 53.64,-1.39 78.66,8.46 100.18,19.69 15.87,-11.25 45.76,-19.14 104.46,-20.12 -6.1,9.2 -12.39,18.29 -13.27,30.4 50.45,42.84 44.03,100.43 -1.05,132.96 -25.06,18.09 -74.87,34.2 -123.53,20.31z"/>
   <path class="fil1" d="M247.78 88.78c-13.83,23.84 -12.86,47.37 -0.43,70.64 14.63,-22.73 16.06,-46.2 0.43,-70.64z"/>
   <g>
    <g style="clip-path:url(#id0)">
     <image x="126.47" y="37.97" width="244.92" height="100.87" xlink:href="logo_vertical_Images/logo_vertical_ImgID1.png"/>
    </g>
   </g>
   <path id="path2830" class="fil0 str0" d="M313.8 51.18c-17.74,0.12 -34.84,5.57 -52.25,7.75 -7.27,0.91 -14.76,1.13 -22.04,0.29 -9.68,-1.13 -19.05,-4.11 -28.73,-5.45 -8.65,-1.2 -17.4,-2.45 -26.1,-2.5 -15.2,-0.09 -29.91,4.59 -44.81,7.12 0,4.29 -0.88,9.79 1.35,12.8 2.3,3.11 6.17,5.95 7.18,10.16 2.38,9.99 5.77,19.78 10.1,29.17 2.1,4.56 6.07,7.74 10.51,9.93 10.68,5.27 23.32,6.05 35.03,4.39 16.68,-2.36 25.73,-14.67 32.64,-28.74 2.58,-5.72 2.87,-12.31 6.28,-17.54 2.02,-3.1 6.72,-1.8 10.07,-1.81 3.36,-0.01 6.2,5.48 7.24,9.13 3.69,12.93 9.83,26.64 22.04,33.41 18.24,10.12 46.97,8.22 58.79,-10.02 4.63,-7.14 5.91,-15.8 8.23,-23.88 1.42,-4.92 2.68,-10.79 7.71,-13.49 2.03,-1.09 0.61,-5.45 0.91,-7.98 0.32,-2.76 0.95,-5.2 -3.04,-5.74 -6.96,-0.95 -13.72,-3.82 -20.84,-4.79 -6.75,-0.92 -13.37,-2.25 -20.26,-2.21l0 0zm-117.3 4.59c5.03,-0.03 10.05,0.33 14.95,1.35 29.17,6.07 29.76,17.88 17.75,42.31 -9.79,19.9 -30.05,24.89 -50.48,20.12 -9.42,-2.2 -15.85,-8.66 -18.89,-17.51 -3.2,-9.34 -5.63,-19.26 -5.08,-29.08 0.73,-13.14 15.85,-14.99 26.68,-16.19 4.97,-0.55 10.03,-0.97 15.07,-1zm106.5 0c5.04,0.03 10.09,0.45 15.06,1 10.83,1.2 25.95,3.04 26.69,16.19 0.55,9.82 -1.88,19.74 -5.08,29.08 -3.04,8.85 -9.47,15.31 -18.89,17.51 -20.42,4.77 -40.69,-0.22 -50.47,-20.12 -12.01,-24.43 -11.42,-36.25 17.75,-42.31 4.89,-1.02 9.91,-1.38 14.95,-1.35l0 0z"/>
   <path id="path2832" class="fil2" d="M181.43 56.79c9.94,-1.1 20.22,-1.7 30.01,0.34 29.16,6.07 29.75,17.88 17.75,42.31 -9.78,19.9 -30.04,24.89 -50.46,20.12 -9.42,-2.2 -15.86,-8.69 -18.89,-17.53 -3.21,-9.34 -5.64,-19.26 -5.09,-29.07 0.73,-13.14 15.86,-14.98 26.69,-16.17l0 0z"/>
   <path id="path2832-1" class="fil2" d="M318.05 56.79c-9.94,-1.1 -20.22,-1.7 -30.01,0.34 -29.17,6.07 -29.75,17.88 -17.75,42.31 9.78,19.9 30.04,24.89 50.46,20.12 9.42,-2.2 15.86,-8.69 18.89,-17.53 3.2,-9.34 5.64,-19.26 5.09,-29.07 -0.73,-13.14 -15.87,-14.98 -26.69,-16.17l0 0z"/>
   <g>
    <g style="clip-path:url(#id1)">
     <image x="140.55" y="412.42" width="241.48" height="77.94" xlink:href="logo_vertical_Images/logo_vertical_ImgID2.png"/>
    </g>
   </g>
   <g>
    <path class="fil1" d="M354.34 423.84c-4.16,2.55 -5.97,6.38 -4.37,12.08 1.41,5.03 3.85,7.03 6.09,11.23 5.68,10.64 1.09,19.76 -7.56,28.28 7.14,-0.65 14.09,-2.3 19.66,-10.76 4.91,-7.45 5.24,-13.49 4.67,-22.25 -1.08,-16.29 -8.66,-23.89 -18.48,-18.57z"/>
    <path class="fil1" d="M336.04 441.71c-2.9,5.53 -0.71,12 0.19,19.67 0.55,7.7 -0.27,13.08 -2.72,18.71 -0.28,2.95 1.69,1.17 9.44,-9.56 3.07,-4.25 4.05,-5.76 5.32,-11.01 2.28,-9.42 -0.97,-12.06 -3.14,-16.6 -3.01,-4.8 -6.04,-5.98 -9.09,-1.21z"/>
    <path class="fil1" d="M328.74 457.52c0.54,2.46 -0.88,4.57 -2.1,6.93 -3.37,7.09 -5.06,12.84 -5.21,13.43 -0.39,1.53 -4.33,-13.48 -4.52,-16.38 -0.18,-2.67 -0.39,-5.41 -0.14,-8.9 0.97,-5.52 4.26,-7.73 6.86,-4.62 1.58,1.89 4.62,7.33 5.1,9.53z"/>
    <path class="fil1" d="M205.69 477.74c-0.94,-3.46 -0.85,-6.33 0.59,-8.44 1.26,-1.85 2.96,-2.28 4.53,-4.85 2.36,-3.89 0.76,-8.15 -1.77,-12.03 -1.64,-2.52 -2.83,-4.15 -6.15,-2.19 -2.45,1.44 -3.95,4.89 -4.69,9.51 -0.79,4.92 -1.17,7.05 0.37,11.95 1.39,4.42 3.57,6.41 7.11,6.05z"/>
    <path class="fil1" d="M184.26 475.51c-10.82,-9.68 -9.36,-22.63 -1.79,-36.64 1.96,-3.62 7.78,-3.77 10.5,-0.82 4.58,4.97 -1.74,9.08 -3.31,12.17 -4.15,8.18 -4.72,14.34 -5.41,25.3z"/>
    <path class="fil1" d="M166.57 422.47c-16.12,13.4 -19.36,25.82 -15.63,39.83 3.13,7.65 7.46,13.46 13.46,16.71 -0.42,-21.41 4.16,-28.88 9.32,-34.7 1.04,-1.17 2.11,-2.28 3.16,-3.41 6.46,-14.44 -2.06,-22.51 -10.31,-18.43z"/>
   </g>
  </g>
 </g>
</svg>
