<?xml version="1.0" encoding="UTF-8"?>
<!DOCTYPE svg PUBLIC "-//W3C//DTD SVG 1.1//EN" "http://www.w3.org/Graphics/SVG/1.1/DTD/svg11.dtd">
<!-- Creator: CorelDRAW -->
<svg xmlns="http://www.w3.org/2000/svg" xml:space="preserve" width="39.585mm" height="16.6278mm" version="1.1" style="shape-rendering:geometricPrecision; text-rendering:geometricPrecision; image-rendering:optimizeQuality; fill-rule:evenodd; clip-rule:evenodd"
viewBox="0 0 1144.28 480.66"
 xmlns:xlink="http://www.w3.org/1999/xlink"
 xmlns:xodm="http://www.corel.com/coreldraw/odm/2003">
 <defs>
  <style type="text/css">
   <![CDATA[
    .fil1 {fill:white}
    .fil0 {fill:white;fill-rule:nonzero}
   ]]>
  </style>
 </defs>
 <g id="Camada_x0020_1">
  <metadata id="CorelCorpID_0Corel-Layer"/>
  <g id="_105554050525728">
   <path class="fil0" d="M1144.28 57.18c0,5.94 -2.09,10.92 -6.34,15.01 -4.26,4.26 -9.31,6.34 -15.25,6.34l-213.76 0c-6.02,0 -11,-2.09 -15.09,-6.34 -4.26,-4.09 -6.34,-9.07 -6.34,-15.01l0 -0.48c0,-5.94 2.09,-11.08 6.34,-15.33 4.09,-4.25 9.07,-6.34 15.09,-6.34l213.76 0c5.94,0 11,2.09 15.25,6.34 4.26,4.26 6.34,9.39 6.34,15.33l0 0.48z"/>
   <path class="fil1" d="M265.49 25.42c27.15,-40.13 70.15,-26.11 86.7,-3.29 15.12,20.85 19.65,62.05 -11.91,87.73 37.18,-41.17 16.41,-84.91 -8.69,-98.34 -23.43,-12.55 -55.93,-4.01 -63.99,29.9 7.99,0.71 6.59,7.29 -0.47,17.4 14.71,39.33 53.44,29.04 57.82,8.3 0.12,-0.56 0.21,-1.1 0.29,-1.63 -1.16,2.93 -2.97,5.57 -5.45,7.93 -4.47,4.54 -9.88,6.78 -16.23,6.78 -6.5,0 -11.98,-2.24 -16.52,-6.78 -4.47,-4.47 -6.71,-9.96 -6.71,-16.45 0,-27.11 42.24,-35.48 53.56,-7.28 5.08,12.66 2.12,29.01 -9.11,38.11 -17.52,14.2 -50.29,11.4 -64.47,-23.34 -4.76,2.1 -8.85,7.09 -12.42,14.37l-0 -0c-0.12,-0.25 -0.22,-0.56 -0.27,-0.95 -0.91,-7.48 8.99,-26.44 10.58,-28.94 0,-2.51 0,-5.02 0,-7.53 -6.21,3.06 -9.29,7.61 -12.58,12.07 -0.03,-0.45 -0.03,-0.84 0,-1.2 0.03,-0.4 0.08,-0.79 0.14,-1.12 0.06,-0.32 0.14,-0.56 0.25,-0.92 3.27,-10.33 8.84,-20.66 19.47,-24.82z"/>
   <path class="fil0" d="M42.87 140.31c37.56,87.66 63.57,148.82 78.51,183.5 0,-0.48 0.48,0 0.96,1.45 0.96,2.41 1.93,2.41 3.37,0l0.48 -1.45 78.99 -183.5c3.37,-8.67 10.11,-13 19.75,-13l0.48 0c7.71,0 13.49,3.37 17.82,9.63 4.34,6.26 4.82,13.01 1.93,20.23l-87.65 204.21c-6.26,14.93 -17.34,22.64 -33.23,22.64 -16.86,0 -27.93,-7.71 -33.71,-22.64l-87.65 -204.21c-2.89,-7.22 -2.41,-13.97 1.93,-20.23 4.34,-6.26 10.11,-9.63 17.82,-9.63l0.96 0c9.15,0 15.89,4.33 19.27,13z"/>
   <path class="fil0" d="M306.07 127.22c5.94,0 10.92,2.09 15.01,6.34 4.26,4.26 6.34,9.31 6.34,15.25l0 213.76c0,6.02 -2.09,11 -6.34,15.09 -4.1,4.26 -9.07,6.34 -15.01,6.34l-0.48 0c-5.94,0 -11.08,-2.09 -15.33,-6.34 -4.25,-4.09 -6.34,-9.07 -6.34,-15.09l0 -213.76c0,-5.94 2.09,-11 6.34,-15.25 4.26,-4.26 9.39,-6.34 15.33,-6.34l0.48 0z"/>
   <path class="fil0" d="M511.57 127.3c35.64,0 65.99,12.52 91.03,37.57 25.04,25.04 37.57,55.39 37.57,90.54l0 107.4c0,5.78 -1.93,10.59 -6.26,14.93 -4.33,4.34 -9.15,6.26 -14.93,6.26l-0.96 0c-5.78,0 -10.59,-1.93 -14.93,-6.26 -4.33,-4.34 -6.26,-9.15 -6.26,-14.93l0 -11.08c-24.56,21.67 -52.98,32.27 -85.25,32.27 -35.16,0 -65.5,-12.52 -90.54,-37.57 -25.04,-25.04 -37.57,-55.39 -37.57,-91.03 0,-35.16 12.52,-65.5 37.57,-90.54 25.04,-25.04 55.39,-37.57 90.54,-37.57zm0 43.35c-23.6,0 -43.35,8.19 -60.2,25.04 -16.38,16.86 -24.57,36.6 -24.57,59.72 0,23.6 8.19,43.83 24.57,60.2 16.86,16.86 36.6,25.04 60.2,25.04 23.6,0 43.83,-8.19 60.2,-25.04 16.86,-16.38 25.04,-36.6 25.04,-60.2 0,-23.12 -8.19,-42.87 -25.04,-59.72 -16.38,-16.86 -36.6,-25.04 -60.2,-25.04z"/>
   <path class="fil0" d="M923.53 340.18c23.6,0 43.83,-8.19 60.2,-25.04 16.86,-16.86 25.04,-36.6 25.04,-60.2 0,-23.6 -8.19,-43.35 -25.04,-60.2 -16.38,-16.38 -36.6,-24.57 -60.2,-24.57 -23.6,0 -43.35,8.19 -60.2,24.57 -16.38,16.86 -24.57,36.6 -24.57,60.2 0,23.6 8.19,43.35 24.57,60.2 16.86,16.86 36.6,25.04 60.2,25.04zm-106.92 140.63c-5.78,0 -10.59,-1.93 -14.93,-6.26 -4.33,-4.33 -6.26,-9.63 -6.26,-15.41l0 -204.21c0,-35.16 12.52,-65.5 37.57,-90.54 25.04,-24.56 55.39,-37.08 90.54,-37.08 35.64,0 65.99,12.52 91.03,37.57 25.04,25.04 37.57,55.39 37.57,90.54 0,35.64 -12.52,65.98 -37.57,91.03 -25.04,25.04 -55.39,37.57 -91.03,37.57 -32.27,0 -60.68,-10.6 -84.77,-32.27l0 107.4c0,5.78 -1.93,11.08 -6.26,15.41 -4.33,4.34 -9.15,6.26 -14.93,6.26l-0.96 0z"/>
   <path class="fil0" d="M1122.92 127.22c5.94,0 10.92,2.09 15.01,6.34 4.26,4.26 6.34,9.31 6.34,15.25l0 213.76c0,6.02 -2.09,11 -6.34,15.09 -4.1,4.26 -9.07,6.34 -15.01,6.34l-0.48 0c-5.94,0 -11.08,-2.09 -15.33,-6.34 -4.25,-4.09 -6.34,-9.07 -6.34,-15.09l0 -213.76c0,-5.94 2.09,-11 6.34,-15.25 4.26,-4.26 9.39,-6.34 15.33,-6.34l0.48 0z"/>
   <path class="fil0" d="M718.11 127.3c5.78,0 10.6,1.93 14.93,6.26 4.34,4.33 6.26,9.15 6.26,15.41l0 213.84c0,5.78 -1.93,10.59 -6.26,14.93 -4.33,4.34 -9.15,6.26 -14.93,6.26l-0.48 0c-6.26,0 -11.08,-1.93 -15.41,-6.26 -4.33,-4.34 -6.26,-9.15 -6.26,-14.93l0 -213.84c0,-6.26 1.93,-11.08 6.26,-15.41 4.34,-4.34 9.15,-6.26 15.41,-6.26l0.48 0zm-0.48 -44.79c-7.22,0 -13.01,-2.41 -18.3,-7.71 -4.82,-4.82 -7.22,-11.08 -7.22,-18.3 0,-7.22 2.41,-13 7.22,-17.82 5.3,-5.3 11.08,-7.71 18.3,-7.71 7.22,0 13,2.41 18.3,7.71 5.3,4.82 7.71,10.59 7.71,17.82 0,7.23 -2.41,13.49 -7.71,18.3 -5.3,5.3 -11.08,7.71 -18.3,7.71z"/>
   <path class="fil0" d="M731.62 459.3c0,5.94 -2.09,10.92 -6.34,15.01 -4.26,4.26 -9.31,6.34 -15.25,6.34l-600.83 0c-6.02,0 -11,-2.09 -15.09,-6.34 -4.26,-4.1 -6.34,-9.07 -6.34,-15.01l0 -0.48c0,-5.94 2.09,-11.08 6.34,-15.33 4.09,-4.25 9.07,-6.34 15.09,-6.34l600.83 0c5.94,0 11,2.09 15.25,6.34 4.25,4.26 6.34,9.39 6.34,15.33l0 0.48z"/>
  </g>
 </g>
</svg>
